# xmcd CD database file
#
# Track frame offsets:
#	150
#	7860
#	26980
#	46330
#	65280
#	82563
#	98656
#	118052
#	135752
#	156941
#	178229
#	186417
#	203044
#	224390
#	244814
#	260778
#
# Disc length: 4067 seconds
#
# Revision: 1
# Processed by: cddbd v1.5.1PL0 Copyright (c) Steve Scherf et al.
# Submitted via: CDex 1.51
#
DISCID=d70fe110
DTITLE=場所無き場所のヤルハラ (丼) - 旅するコドモ
DYEAR=2004
DGENRE=Electronic
TTITLE0=なでる
TTITLE1=live.1
TTITLE2=live.2
TTITLE3=面影
TTITLE4=ヘンゼルエンゼル
TTITLE5=ほとり
TTITLE6=セツナ
TTITLE7=電気羊
TTITLE8=センチネル
TTITLE9=つちくれ
TTITLE10=はぐれたけど
TTITLE11=まくら
TTITLE12=かわいいかたち
TTITLE13=セツナ DJ銚子 REMIX
TTITLE14=セツナ Mystery-Jam REMIX
TTITLE15=ヤルハラのテーマ
EXTD=YEAR: 2004
EXTT0=
EXTT1=
EXTT2=
EXTT3=
EXTT4=
EXTT5=
EXTT6=
EXTT7=
EXTT8=
EXTT9=
EXTT10=
EXTT11=
EXTT12=
EXTT13=
EXTT14=
EXTT15=
PLAYORDER=
